<svg width="186" height="168" viewBox="0 0 186 168" fill="none" xmlns="http://www.w3.org/2000/svg">
<path d="M183.769 89.0548C179.749 92.9484 179.511 98.987 177.406 103.675C174.363 110.454 171.75 115.914 167.572 122.329C159.166 135.237 141.159 128.213 131.193 121.265C122.339 115.092 99.2368 91.6821 120.137 87.5423C138.09 83.9863 153.525 103.335 160.373 115.271C167.804 128.223 166.941 145.648 161.53 158.852C156.437 171.282 138.544 163.658 129.971 160.085C116.225 154.355 107.543 139.89 99.9549 129.387C91.1741 117.233 84.0401 104.886 76.2375 92.1357C66.6446 76.4599 55.434 61.8991 44.9356 46.6496C39.5796 38.8699 33.8897 30.9644 27.5813 23.7385C23.5619 19.1345 18.6741 14.0639 16.2689 8.61381C14.3762 4.325 13.9125 5.41301 18.3257 7.88558C24.7952 11.5102 30.4178 16.2389 37.094 19.7053C53.9905 28.478 70.5509 36.457 88.8996 42.1682C91.5613 42.9967 94.6071 44.8794 90.0566 42.8964C84.2583 40.3698 79.2387 36.3262 73.1523 34.1017C64.2772 30.8581 55.078 27.2608 47.2495 22.2821C41.5005 18.6258 33.8245 15.6141 28.7383 11.4147C25.306 8.58077 21.4682 6.43062 17.7473 3.90835C14.3481 1.60418 14.6693 0.851185 13.0552 4.46852C9.36315 12.7426 7.44945 22.0498 5.8564 30.7967C4.44734 38.5333 2.12845 46.9588 2.12845 54.7721" stroke="#8E6A50" stroke-width="3" stroke-linecap="round"/>
</svg>
